PathFileType	4	(X/Y/Z)	Run_200 02
DataRate	CameraRate	NumFrames	NumMarkers	Units	OrigDataRate	OrigDataStartFrame	OrigNumFrames
100	100	4	42	mm	100	38	128
Frame#	Time	RASI			LPSI			RPSI			RTH2			RTH3			LTH1			LTH2			LTH3			RTB1			RTB2			LTB1			LTB2			LTB3			RCAL			RMT5			LCAL			LTOE			LMT5			LACR			RACR			CLAV			C7			RUA1			RUA2			RUA3			RLEL			LUA1			LUA2			LUA3			LLEL			RFAsuperior			RFAradius			RFAulna			LFAsuperior			LFAradius			LFAulna			RTOE			RTH1			LMEL			RTB3			RMEL			LASI			
		X1	Y1	Z1	X2	Y2	Z2	X3	Y3	Z3	X4	Y4	Z4	X5	Y5	Z5	X6	Y6	Z6	X7	Y7	Z7	X8	Y8	Z8	X9	Y9	Z9	X10	Y10	Z10	X11	Y11	Z11	X12	Y12	Z12	X13	Y13	Z13	X14	Y14	Z14	X15	Y15	Z15	X16	Y16	Z16	X17	Y17	Z17	X18	Y18	Z18	X19	Y19	Z19	X20	Y20	Z20	X21	Y21	Z21	X22	Y22	Z22	X23	Y23	Z23	X24	Y24	Z24	X25	Y25	Z25	X26	Y26	Z26	X27	Y27	Z27	X28	Y28	Z28	X29	Y29	Z29	X30	Y30	Z30	X31	Y31	Z31	X32	Y32	Z32	X33	Y33	Z33	X34	Y34	Z34	X35	Y35	Z35	X36	Y36	Z36	X37	Y37	Z37	X38	Y38	Z38	X39	Y39	Z39	X40	Y40	Z40	X41	Y41	Z41	X42	Y42	Z42	

30	0.49	1068.640808	1092.545608	-224.541663	907.053137	1150.290081	-410.717851	907.832205	1143.591586	-298.082603	900.51792	825.128538	-207.120043	915.827334	669.738573	-222.332731	1030.16889	968.169008	-535.4544	1015.707621	804.631096	-484.745873	1118.882741	702.9429280000001	-479.352355	886.8011770000001	411.781724	-298.557183	797.435055	401.818761	-230.096357	1195.568311	487.56766	-422.269225	1087.345463	401.004544	-473.353494	1121.480525	283.195797	-416.897518	612.341098	200.425432	-309.618866	759.306995	65.50175400000001	-248.776263	971.366857	170.108096	-387.774576	1205.093906	128.381328	-391.651078	1148.738685	87.63145799999999	-478.79226	1050.035122	1578.916841	-504.146605	1100.845279	1546.982146	-189.81667	1137.12681	1514.974764	-325.297362	1019.460871	1595.775809	-338.982946	1011.710861	1448.256429	-108.37723	1059.930394	1386.588772	-96.00275000000001	1010.111158	1304.544031	-45.181787	989.611684	1240.426748	-19.514513	923.380265	1524.929958	-545.3132419999999	922.492184	1445.385629	-580.030141	829.433612	1412.594683	-590.833798	786.251722	1359.061323	-608.544429	1088.437906	1210.898333	-53.541927	1211.368376	1221.190212	-185.623604	1218.339974	1167.41375	-140.325396	827.634784	1285.358369	-616.676097	993.308912	1211.344632	-557.986079	956.090374	1160.482442	-593.214768	806.309796	69.58005900000001	-346.610161	976.3217100000001	962.30075	-182.760992	779.697381	1337.67021	-521.481406	777.8374240000001	257.008909	-314.708891	969.781562	1219.532851	-105.59899	1090.679344	1080.845313	-468.233784	
31	0.5	1069.34691	1096.664936	-224.932589	907.013382	1154.565152	-410.502131	908.431424	1147.84613	-298.010657	898.4329279999999	830.589138	-206.734231	910.9029870000001	675.393112	-222.232316	1028.613077	971.948396	-536.7842869999999	1011.700916	808.221395	-485.201686	1113.560641	704.979026	-479.823279	878.392063	417.230254	-297.506826	788.2362419999999	408.699539	-229.849755	1196.8226	490.795669	-421.581501	1095.710513	396.85099	-473.867337	1136.246496	281.915027	-415.377639	602.84654	212.356097	-309.499473	742.26266	69.102906	-249.072259	993.920614	158.799287	-388.605827	1229.597532	133.716145	-384.993198	1178.97557	86.09912300000001	-471.872679	1050.802989	1583.204861	-505.03431	1102.403338	1551.999527	-190.061276	1137.883779	1518.820287	-326.557807	1020.558351	1600.050584	-339.540218	1013.473174	1452.96157	-108.900131	1061.46451	1391.124677	-96.781119	1011.80771	1309.571938	-45.205527	991.504182	1245.132326	-19.800588	923.520352	1531.180428	-544.8622810000001	921.058718	1451.871293	-579.471683	827.581979	1419.982524	-588.677499	784.003781	1366.31421	-605.915527	1090.144162	1217.552527	-54.992715	1210.931373	1231.315033	-188.52223	1220.076888	1177.323279	-143.996503	825.220281	1292.874796	-615.201656	991.883033	1218.62282	-559.552221	954.224881	1167.889931	-594.452671	789.3238270000001	70.50579999999999	-346.72444	976.237487	966.821174	-182.661018	778.7649269999999	1344.214881	-519.1061120000001	767.675675	263.567934	-313.711246	970.893289	1224.302216	-105.785187	1091.45471	1084.86377	-468.601168	
32	0.51	1069.942405	1099.943554	-225.459422	907.109008	1157.82256	-410.47303	908.92057	1151.260979	-298.06663	897.085705	835.0729260000001	-206.448714	907.582504	680.204792	-222.156931	1027.397865	974.583724	-537.780175	1008.670396	810.874171	-486.135004	1108.413529	705.797837	-480.883989	871.473328	421.844947	-296.402239	780.643206	415.042519	-229.425891	1196.946537	492.901889	-420.833601	1102.866725	392.590877	-474.093015	1149.450825	280.655802	-413.853102	594.253772	224.239304	-309.017467	725.7658280000001	73.06496199999999	-249.063046	1015.28099	148.401809	-388.952852	1251.627835	139.754041	-378.693709	1206.838909	85.640444	-464.410538	1051.35315	1586.627297	-506.033371	1103.550333	1556.068824	-190.640718	1138.441884	1521.89743	-327.824292	1021.376677	1603.549949	-340.220448	1014.821434	1456.896325	-109.58818	1062.707019	1394.929415	-97.708034	1013.093687	1313.799016	-45.48381	992.886875	1249.167462	-20.159993	923.604785	1536.279537	-544.398835	919.772797	1457.131342	-578.987025	826.045377	1425.717003	-586.76055	782.124746	1371.85348	-603.376883	1091.278538	1223.058421	-56.072858	1210.162702	1239.183195	-190.494649	1221.167928	1185.030869	-147.291858	823.256738	1298.660384	-613.802197	990.977512	1224.515431	-560.95142	952.9860629999999	1173.877313	-595.689177	772.863143	71.72835499999999	-346.655823	976.308563	970.736042	-182.401251	778.225271	1349.229927	-516.7564640000001	758.44433	269.75694	-312.596189	971.530664	1228.38472	-106.046859	1092.119431	1088.041562	-469.104446	
33	0.52	1070.495558	1102.368389	-226.163645	907.380603	1160.097349	-410.66992	909.364212	1153.821856	-298.299511	896.517301	838.361303	-206.302046	906.042601	683.828649	-221.97537	1026.707595	976.296906	-538.371315	1006.450714	812.689545	-486.791919	1103.540112	705.619224	-482.067657	866.171586	425.462285	-295.357651	774.7505609999999	420.71152	-228.766593	1196.174291	493.896565	-420.331057	1108.562076	388.257507	-473.893414	1160.90364	279.40879	-412.429297	586.591848	235.983628	-308.109856	709.8399899999999	77.306702	-248.780846	1034.861129	139.150878	-388.543451	1270.813542	146.051258	-373.243347	1231.478465	86.34240200000001	-457.466833	1051.627565	1589.241947	-506.890931	1104.273538	1558.88029	-191.818865	1138.782642	1524.215747	-329.042271	1021.912191	1606.193863	-341.025081	1015.751879	1460.027959	-110.422712	1063.661311	1397.947408	-98.762495	1013.916593	1317.204958	-46.014874	993.710382	1252.523519	-20.575118	923.555235	1540.084873	-544.1085430000001	918.716007	1460.943728	-578.6073730000001	824.790406	1429.727256	-585.106029	780.600562	1375.680697	-601.0563519999999	1091.851015	1227.314799	-57.077751	1209.159214	1244.837171	-192.060126	1221.605706	1190.485812	-150.150796	821.734794	1302.697123	-612.525745	990.573187	1229.038746	-562.23294	952.352486	1178.434271	-596.881046	756.847517	73.250463	-346.407894	976.516785	973.84365	-182.210123	777.992554	1352.705571	-514.489945	750.3367940000001	275.51976	-311.55073	971.688614	1231.75212	-106.365519	1092.741773	1090.36561	-469.785104	
